<svg height="2526" width="720" xmlns="http://www.w3.org/2000/svg">
<rect height="2526" fill="#555" width="720"></rect>
<text fill="#7f7" font-family="Courier New" font-size="12" xml:space="preserve">
<tspan x="10" y="26">10 megabytes installed</tspan>
<tspan x="10" y="42"></tspan>
<tspan x="10" y="58">node_modules</tspan>
<tspan x="10" y="74">└─┬ gulp-swig@0.8.0 </tspan>
<tspan x="10" y="90">  ├── clone@0.1.19 </tspan>
<tspan x="10" y="106">  ├─┬ event-stream@3.0.20 </tspan>
<tspan x="10" y="122">  │ ├── duplexer@0.1.1 </tspan>
<tspan x="10" y="138">  │ ├── from@0.1.7 </tspan>
<tspan x="10" y="154">  │ ├── map-stream@0.0.7 </tspan>
<tspan x="10" y="170">  │ ├── pause-stream@0.0.11 </tspan>
<tspan x="10" y="186">  │ ├── split@0.2.10 </tspan>
<tspan x="10" y="202">  │ ├── stream-combiner@0.0.4 </tspan>
<tspan x="10" y="218">  │ └── through@2.3.8 </tspan>
<tspan x="10" y="234">  ├─┬ gulp@3.5.6 </tspan>
<tspan x="10" y="250">  │ ├── archy@0.0.2 </tspan>
<tspan x="10" y="266">  │ ├─┬ chalk@0.4.0 </tspan>
<tspan x="10" y="282">  │ │ ├── ansi-styles@1.0.0 </tspan>
<tspan x="10" y="298">  │ │ ├── has-color@0.1.7 </tspan>
<tspan x="10" y="314">  │ │ └── strip-ansi@0.1.1 </tspan>
<tspan x="10" y="330">  │ ├── deprecated@0.0.1 </tspan>
<tspan x="10" y="346">  │ ├─┬ liftoff@0.9.8 </tspan>
<tspan x="10" y="362">  │ │ ├── extend@1.2.1 </tspan>
<tspan x="10" y="378">  │ │ ├─┬ findup-sync@0.1.3 </tspan>
<tspan x="10" y="394">  │ │ │ ├─┬ glob@3.2.11 </tspan>
<tspan x="10" y="410">  │ │ │ │ └─┬ minimatch@0.3.0 </tspan>
<tspan x="10" y="426">  │ │ │ │   ├── lru-cache@2.7.3 </tspan>
<tspan x="10" y="442">  │ │ │ │   └── sigmund@1.0.1 </tspan>
<tspan x="10" y="458">  │ │ │ └── lodash@2.4.2 </tspan>
<tspan x="10" y="474">  │ │ ├── minimist@0.0.10 </tspan>
<tspan x="10" y="490">  │ │ └── resolve@0.6.3 </tspan>
<tspan x="10" y="506">  │ ├─┬ orchestrator@0.3.8 </tspan>
<tspan x="10" y="522">  │ │ ├─┬ end-of-stream@0.1.5 </tspan>
<tspan x="10" y="538">  │ │ │ └─┬ once@1.3.3 </tspan>
<tspan x="10" y="554">  │ │ │   └── wrappy@1.0.2 </tspan>
<tspan x="10" y="570">  │ │ ├── sequencify@0.0.7 </tspan>
<tspan x="10" y="586">  │ │ └── stream-consume@0.1.0 </tspan>
<tspan x="10" y="602">  │ ├── pretty-hrtime@0.2.2 </tspan>
<tspan x="10" y="618">  │ ├── semver@2.3.2 </tspan>
<tspan x="10" y="634">  │ └─┬ vinyl-fs@0.1.4 </tspan>
<tspan x="10" y="650">  │   ├─┬ glob-stream@3.1.18 </tspan>
<tspan x="10" y="666">  │   │ ├─┬ glob@4.5.3 </tspan>
<tspan x="10" y="682">  │   │ │ └── inflight@1.0.6 </tspan>
<tspan x="10" y="698">  │   │ ├─┬ glob2base@0.0.12 </tspan>
<tspan x="10" y="714">  │   │ │ └── find-index@0.1.1 </tspan>
<tspan x="10" y="730">  │   │ ├─┬ minimatch@2.0.10 </tspan>
<tspan x="10" y="746">  │   │ │ └─┬ brace-expansion@1.1.7 </tspan>
<tspan x="10" y="762">  │   │ │   ├── balanced-match@0.4.2 </tspan>
<tspan x="10" y="778">  │   │ │   └── concat-map@0.0.1 </tspan>
<tspan x="10" y="794">  │   │ ├── ordered-read-streams@0.1.0 </tspan>
<tspan x="10" y="810">  │   │ ├─┬ through2@0.6.5 </tspan>
<tspan x="10" y="826">  │   │ │ ├── readable-stream@1.0.34 </tspan>
<tspan x="10" y="842">  │   │ │ └── xtend@4.0.1 </tspan>
<tspan x="10" y="858">  │   │ └── unique-stream@1.0.0 </tspan>
<tspan x="10" y="874">  │   ├─┬ glob-watcher@0.0.6 </tspan>
<tspan x="10" y="890">  │   │ └─┬ gaze@0.5.2 </tspan>
<tspan x="10" y="906">  │   │   └─┬ globule@0.1.0 </tspan>
<tspan x="10" y="922">  │   │     ├─┬ glob@3.1.21 </tspan>
<tspan x="10" y="938">  │   │     │ ├── graceful-fs@1.2.3 </tspan>
<tspan x="10" y="954">  │   │     │ └── inherits@1.0.2 </tspan>
<tspan x="10" y="970">  │   │     ├── lodash@1.0.2 </tspan>
<tspan x="10" y="986">  │   │     └── minimatch@0.2.14 </tspan>
<tspan x="10" y="1002">  │   ├── graceful-fs@2.0.3 </tspan>
<tspan x="10" y="1018">  │   ├── map-stream@0.1.0 </tspan>
<tspan x="10" y="1034">  │   └── mkdirp@0.3.5 </tspan>
<tspan x="10" y="1050">  ├─┬ gulp-util@2.2.20 </tspan>
<tspan x="10" y="1066">  │ ├─┬ chalk@0.5.1 </tspan>
<tspan x="10" y="1082">  │ │ ├── ansi-styles@1.1.0 </tspan>
<tspan x="10" y="1098">  │ │ ├── escape-string-regexp@1.0.5 </tspan>
<tspan x="10" y="1114">  │ │ ├── has-ansi@0.1.0 </tspan>
<tspan x="10" y="1130">  │ │ ├─┬ strip-ansi@0.3.0 </tspan>
<tspan x="10" y="1146">  │ │ │ └── ansi-regex@0.2.1 </tspan>
<tspan x="10" y="1162">  │ │ └── supports-color@0.2.0 </tspan>
<tspan x="10" y="1178">  │ ├─┬ dateformat@1.0.12 </tspan>
<tspan x="10" y="1194">  │ │ ├── get-stdin@4.0.1 </tspan>
<tspan x="10" y="1210">  │ │ └─┬ meow@3.7.0 </tspan>
<tspan x="10" y="1226">  │ │   ├─┬ camelcase-keys@2.1.0 </tspan>
<tspan x="10" y="1242">  │ │   │ └── camelcase@2.1.1 </tspan>
<tspan x="10" y="1258">  │ │   ├── decamelize@1.2.0 </tspan>
<tspan x="10" y="1274">  │ │   ├─┬ loud-rejection@1.6.0 </tspan>
<tspan x="10" y="1290">  │ │   │ ├─┬ currently-unhandled@0.4.1 </tspan>
<tspan x="10" y="1306">  │ │   │ │ └── array-find-index@1.0.2 </tspan>
<tspan x="10" y="1322">  │ │   │ └── signal-exit@3.0.2 </tspan>
<tspan x="10" y="1338">  │ │   ├── map-obj@1.0.1 </tspan>
<tspan x="10" y="1354">  │ │   ├── minimist@1.2.0 </tspan>
<tspan x="10" y="1370">  │ │   ├─┬ normalize-package-data@2.3.6 </tspan>
<tspan x="10" y="1386">  │ │   │ ├── hosted-git-info@2.4.2 </tspan>
<tspan x="10" y="1402">  │ │   │ ├─┬ is-builtin-module@1.0.0 </tspan>
<tspan x="10" y="1418">  │ │   │ │ └── builtin-modules@1.1.1 </tspan>
<tspan x="10" y="1434">  │ │   │ └─┬ validate-npm-package-license@3.0.1 </tspan>
<tspan x="10" y="1450">  │ │   │   ├─┬ spdx-correct@1.0.2 </tspan>
<tspan x="10" y="1466">  │ │   │   │ └── spdx-license-ids@1.2.2 </tspan>
<tspan x="10" y="1482">  │ │   │   └── spdx-expression-parse@1.0.4 </tspan>
<tspan x="10" y="1498">  │ │   ├── object-assign@4.1.1 </tspan>
<tspan x="10" y="1514">  │ │   ├─┬ read-pkg-up@1.0.1 </tspan>
<tspan x="10" y="1530">  │ │   │ ├─┬ find-up@1.1.2 </tspan>
<tspan x="10" y="1546">  │ │   │ │ ├── path-exists@2.1.0 </tspan>
<tspan x="10" y="1562">  │ │   │ │ └─┬ pinkie-promise@2.0.1 </tspan>
<tspan x="10" y="1578">  │ │   │ │   └── pinkie@2.0.4 </tspan>
<tspan x="10" y="1594">  │ │   │ └─┬ read-pkg@1.1.0 </tspan>
<tspan x="10" y="1610">  │ │   │   ├─┬ load-json-file@1.1.0 </tspan>
<tspan x="10" y="1626">  │ │   │   │ ├── graceful-fs@4.1.11 </tspan>
<tspan x="10" y="1642">  │ │   │   │ ├─┬ parse-json@2.2.0 </tspan>
<tspan x="10" y="1658">  │ │   │   │ │ └─┬ error-ex@1.3.1 </tspan>
<tspan x="10" y="1674">  │ │   │   │ │   └── is-arrayish@0.2.1 </tspan>
<tspan x="10" y="1690">  │ │   │   │ ├── pify@2.3.0 </tspan>
<tspan x="10" y="1706">  │ │   │   │ └─┬ strip-bom@2.0.0 </tspan>
<tspan x="10" y="1722">  │ │   │   │   └── is-utf8@0.2.1 </tspan>
<tspan x="10" y="1738">  │ │   │   └── path-type@1.1.0 </tspan>
<tspan x="10" y="1754">  │ │   ├─┬ redent@1.0.0 </tspan>
<tspan x="10" y="1770">  │ │   │ ├─┬ indent-string@2.1.0 </tspan>
<tspan x="10" y="1786">  │ │   │ │ └─┬ repeating@2.0.1 </tspan>
<tspan x="10" y="1802">  │ │   │ │   └─┬ is-finite@1.0.2 </tspan>
<tspan x="10" y="1818">  │ │   │ │     └── number-is-nan@1.0.1 </tspan>
<tspan x="10" y="1834">  │ │   │ └── strip-indent@1.0.1 </tspan>
<tspan x="10" y="1850">  │ │   └── trim-newlines@1.0.0 </tspan>
<tspan x="10" y="1866">  │ ├── lodash._reinterpolate@2.4.1 </tspan>
<tspan x="10" y="1882">  │ ├─┬ lodash.template@2.4.1 </tspan>
<tspan x="10" y="1898">  │ │ ├── lodash._escapestringchar@2.4.1 </tspan>
<tspan x="10" y="1914">  │ │ ├─┬ lodash.defaults@2.4.1 </tspan>
<tspan x="10" y="1930">  │ │ │ └── lodash._objecttypes@2.4.1 </tspan>
<tspan x="10" y="1946">  │ │ ├─┬ lodash.escape@2.4.1 </tspan>
<tspan x="10" y="1962">  │ │ │ ├─┬ lodash._escapehtmlchar@2.4.1 </tspan>
<tspan x="10" y="1978">  │ │ │ │ └── lodash._htmlescapes@2.4.1 </tspan>
<tspan x="10" y="1994">  │ │ │ └── lodash._reunescapedhtml@2.4.1 </tspan>
<tspan x="10" y="2010">  │ │ ├─┬ lodash.keys@2.4.1 </tspan>
<tspan x="10" y="2026">  │ │ │ ├── lodash._isnative@2.4.1 </tspan>
<tspan x="10" y="2042">  │ │ │ ├── lodash._shimkeys@2.4.1 </tspan>
<tspan x="10" y="2058">  │ │ │ └── lodash.isobject@2.4.1 </tspan>
<tspan x="10" y="2074">  │ │ ├── lodash.templatesettings@2.4.1 </tspan>
<tspan x="10" y="2090">  │ │ └── lodash.values@2.4.1 </tspan>
<tspan x="10" y="2106">  │ ├── minimist@0.2.0 </tspan>
<tspan x="10" y="2122">  │ ├─┬ multipipe@0.1.2 </tspan>
<tspan x="10" y="2138">  │ │ └─┬ duplexer2@0.0.2 </tspan>
<tspan x="10" y="2154">  │ │   └── readable-stream@1.1.14 </tspan>
<tspan x="10" y="2170">  │ ├─┬ through2@0.5.1 </tspan>
<tspan x="10" y="2186">  │ │ ├─┬ readable-stream@1.0.34 </tspan>
<tspan x="10" y="2202">  │ │ │ ├── core-util-is@1.0.2 </tspan>
<tspan x="10" y="2218">  │ │ │ ├── inherits@2.0.3 </tspan>
<tspan x="10" y="2234">  │ │ │ ├── isarray@0.0.1 </tspan>
<tspan x="10" y="2250">  │ │ │ └── string_decoder@0.10.31 </tspan>
<tspan x="10" y="2266">  │ │ └── xtend@3.0.0 </tspan>
<tspan x="10" y="2282">  │ └─┬ vinyl@0.2.3 </tspan>
<tspan x="10" y="2298">  │   └── clone-stats@0.0.1 </tspan>
<tspan x="10" y="2314">  └─┬ swig@1.4.2 </tspan>
<tspan x="10" y="2330">    ├─┬ optimist@0.6.1 </tspan>
<tspan x="10" y="2346">    │ ├── minimist@0.0.10 </tspan>
<tspan x="10" y="2362">    │ └── wordwrap@0.0.3 </tspan>
<tspan x="10" y="2378">    └─┬ uglify-js@2.4.24 </tspan>
<tspan x="10" y="2394">      ├── async@0.2.10 </tspan>
<tspan x="10" y="2410">      ├─┬ source-map@0.1.34 </tspan>
<tspan x="10" y="2426">      │ └── amdefine@1.0.1 </tspan>
<tspan x="10" y="2442">      ├── uglify-to-browserify@1.0.2 </tspan>
<tspan x="10" y="2458">      └─┬ yargs@3.5.4 </tspan>
<tspan x="10" y="2474">        ├── camelcase@1.2.1 </tspan>
<tspan x="10" y="2490">        ├── window-size@0.1.0 </tspan>
<tspan x="10" y="2506">        └── wordwrap@0.0.2</tspan>
</text>
</svg>
